<svg xmlns="http://www.w3.org/2000/svg" xmlns:xlink="http://www.w3.org/1999/xlink" width="2000" height="498" viewBox="0 0 2000 498"><defs><clipPath id="a"><rect width="2012.03" height="587.191"/></clipPath><clipPath id="b"><rect width="2012.134" height="587.191"/></clipPath><clipPath id="d"><rect width="2000" height="498"/></clipPath></defs><g id="c" clip-path="url(#d)"><g transform="translate(0 0)"><g clip-path="url(#a)"><g clip-path="url(#b)"><path d="M903.08,142.1a29.33,29.33,0,1,1-9.207,57.933A29.684,29.684,0,0,1,873.7,186.895" transform="translate(30.674 -21.786)" fill="none" stroke="#086687" stroke-miterlimit="10" stroke-width="3"/><path d="M874.3,154.6a28.843,28.843,0,0,1,17.173-11.9" transform="translate(30.695 -21.765)" fill="none" stroke="#086687" stroke-miterlimit="10" stroke-width="3"/><path d="M884.9,127.366a55.236,55.236,0,0,1,11.69-1.966" transform="translate(31.061 -22.362)" fill="none" stroke="#086687" stroke-miterlimit="10" stroke-width="3"/><path d="M857.5,151.039A45.889,45.889,0,0,1,874.983,131.9" transform="translate(30.115 -22.138)" fill="none" stroke="#086687" stroke-miterlimit="10" stroke-width="3"/><path d="M940.635,155.6A46.3,46.3,0,0,1,921.6,209.705" transform="translate(32.327 -21.32)" fill="none" stroke="#086687" stroke-miterlimit="10" stroke-width="3"/><path d="M901.4,228.015a46.452,46.452,0,0,0,7.345-1.035,59.2,59.2,0,0,0,36.312-23.38" transform="translate(31.63 -19.663)" fill="none" stroke="#086687" stroke-miterlimit="10" stroke-width="3"/><path d="M854.4,191.2a61.251,61.251,0,0,0,9.414,11.793" transform="translate(30.008 -20.091)" fill="none" stroke="#086687" stroke-miterlimit="10" stroke-width="3"/><path d="M848,198.6a61.15,61.15,0,0,0,16.242,18.311" transform="translate(29.787 -19.836)" fill="none" stroke="#086687" stroke-miterlimit="10" stroke-width="3"/><path d="M916.951,116.293a61.182,61.182,0,0,0-22.139-2.69A58.959,58.959,0,0,0,849.5,140.294" transform="translate(29.839 -22.773)" fill="none" stroke="#086687" stroke-miterlimit="10" stroke-width="3"/><path d="M950.1,195.757A59.05,59.05,0,0,0,932,125.1" transform="translate(32.686 -22.373)" fill="none" stroke="#086687" stroke-miterlimit="10" stroke-width="3"/><path d="M879.4,170.652A16.552,16.552,0,1,0,895.952,154.1,16.6,16.6,0,0,0,879.4,170.652Z" transform="translate(30.871 -21.372)" fill="#fc7500"/><path d="M888.7,140.511c-21.311-7.966-43.864-16.449-74.485-26.587-31.967-10.656-34.656-13.345-71.9-26.691-3.931-1.448-16.138-6.931-21.311-7.966-26.587-5.276-118.762-18.621-170.281-23.9-22.656-2.379-16.656.31-29.277,0C502,54.853,421.31,59.094,400.62,60.646c-6.724.517-30.415,3.207-36.208,0,0,0,2.9-8.069,0-13.345-18.518-1.552-37.656-3.517-55.864,0-1.035,2.9,0,15.932,0,15.932-15.932-7.966-55.864-23.9-82.451-34.553-9.828-3.828-201.834-2.483-199.558.1,2.276,2.483-3.517,188.9,0,188.9H228.787c-1.862-.207,36.415-13.035,34.553-13.345,15.932-7.966,26.587-13.345,44.588-17.483,4.862,7.552-2.069,17.483.621,17.483,9,0,47.277,2.483,55.864,0-.414-1.655.931-7.138.828-9.518,9.207,12.725,15.207,14.483,27.311,25.449,11.793,10.656,6.207,13.449,27.725,24,19.139,9.414,77.175,26.587,93.106,29.277,10.966,1.862,39.415-2.69,50.588-2.69,2.69,0-2.9,22.863-1.345,37.346.724,6.931,2.9,15,9.518,17.173,3.1,1.035,15.414,2.586,18.414,1.345,14.276-6,13.345-16.449,13.345-31.967,0-34.553,2.69-101.072,0-122.383-1.034-8.38-11.069-15.621-13.345-26.587,5.276,2.69,17.276,7.242,20.483,15,11.173,27.518,26.9,55.864,38.07,83.382,6.828,16.759,21.311,42.622,37.243,37.243,4.862-1.655,13.035-10.862,13.345-15.932.621-14.069-7.966-21.621-13.345-34.553-7.655-18.518-34.967-77.278-42.622-95.8-6.1-14.9-15.932-10.656-26.587-21.311-5.69-5.69,23.69-.31,18.621-2.69,36.932,4.966,45.208,7.966,82.451,13.345,19.966,2.9,74.485,26.587,74.485,26.587s79.865,34.553,93.106,29.277c7.966-2.69,15.932-15.932,15.932-21.311C901.946,151.787,895.532,143.1,888.7,140.511ZM500.14,228.341l-21.311-7.966-2.69-55.864,23.9-21.311,15.932,23.9Zm63.933-2.69-21.311,2.69,15.932-50.588,5.276,10.656Z" transform="translate(1.393 -25.783)" fill="#fff"/><path d="M526.922,105.8,484.3,140.456s15.932,15.932,15.932,23.9-15.414,58.657-15.414,58.657,2.069,5.173,10.035,5.173,31.967-2.69,31.967-2.69l15.932-50.588,7.966,13.345-2.69,34.553s34.553,0,34.553,15.932-13.345,29.277-34.553,29.277c0,0-3.724,33.208.828,41.9s11.173,15.518,17.173,16.138,21.932-10.035,21.932-20.69c0-6.621,2.379-123.935,2.379-123.935l-15.725-38.381,19.656,12.311s44.174,107.486,52.243,115.452,15.932,10.655,23.9,7.966,14.069-10.449,13.759-18.518-53.9-126.728-53.9-126.728L601.407,108.49Z" transform="translate(17.233 -23.039)" fill="#ff935f" opacity="0.5"/><path d="M710.632,90.861,552.248,72.032,410.105,93.55l-42.932,102L364.483,61.48,310.792,82.791,230.307,56,26.3,29.1H230.307L302,53.825l8.586-5.276h52.76l1.138,12.931L548.42,53.618l181.04,26.587,12.311,4.552L865.5,140.207l-21.1,4.552S748.806,102.24,745.6,98.93c-1.862-1.862-6.931-15.311-16.138-18.828C725.116,78.446,710.632,90.861,710.632,90.861Z" transform="translate(1.425 -25.686)" fill="#ffd5b8"/><path d="M546.949,91.4l142.763,20.38,7.449,8.69L539.5,95.952Z" transform="translate(19.139 -23.536)" fill="#ffd5b8"/><path d="M303.342,46.6h47.484a4.2,4.2,0,0,1,4.242,4.242V199.4a4.2,4.2,0,0,1-4.242,4.242H303.342A4.2,4.2,0,0,1,299.1,199.4V50.842A4.26,4.26,0,0,1,303.342,46.6Z" transform="translate(10.841 -25.082)" fill="none" stroke="#fc7500" stroke-miterlimit="10" stroke-width="3"/><path d="M53.7,50.4H189.015c6,0,10.862,3.621,10.862,7.966V83.608c0,4.448-4.862,7.966-10.862,7.966H53.7" transform="translate(2.371 -24.951)" fill="none" stroke="#fc7500" stroke-miterlimit="10" stroke-width="3"/><path d="M187.862,173.167A10.861,10.861,0,0,1,177,162.3V128.062A10.861,10.861,0,0,1,187.862,117.2" transform="translate(6.627 -22.645)" fill="none" stroke="#fc7500" stroke-miterlimit="10" stroke-width="3"/><path d="M159,162.042V127.8" transform="translate(6.005 -22.279)" fill="none" stroke="#fc7500" stroke-miterlimit="10" stroke-width="3"/><path d="M166.7,162.042V127.8" transform="translate(6.271 -22.279)" fill="none" stroke="#fc7500" stroke-miterlimit="10" stroke-width="3"/><path d="M135.8,162.042V127.8" transform="translate(5.205 -22.279)" fill="none" stroke="#fc7500" stroke-miterlimit="10" stroke-width="3"/><path d="M143.5,162.042V127.8" transform="translate(5.47 -22.279)" fill="none" stroke="#fc7500" stroke-miterlimit="10" stroke-width="3"/><path d="M309.958,62.577,228.335,27.3H-.5" transform="translate(0.5 -25.748)" fill="none" stroke="#fc7500" stroke-miterlimit="10" stroke-width="3"/><path d="M309.913,179.1l-80.278,34.553H.8" transform="translate(0.545 -20.509)" fill="none" stroke="#fc7500" stroke-miterlimit="10" stroke-width="3"/><path d="M220.7,28.6V218.848" transform="translate(8.135 -25.703)" fill="none" stroke="#fc7500" stroke-miterlimit="10" stroke-width="3"/><path d="M351.9,60.966,538.113,53" transform="translate(12.663 -24.861)" fill="none" stroke="#fc7500" stroke-miterlimit="10" stroke-width="3"/><path d="M530.6,53c11.069,0,19.966,9.518,19.966,21.311s-8.9,21.311-19.966,21.311" transform="translate(18.831 -24.861)" fill="none" stroke="#fc7500" stroke-miterlimit="10" stroke-width="3"/><path d="M698.466,121.322c11.069,0,19.966-9.518,19.966-21.311S709.536,78.7,698.466,78.7,678.5,88.218,678.5,100.011,687.4,121.322,698.466,121.322Z" transform="translate(23.936 -23.974)" fill="none" stroke="#fc7500" stroke-miterlimit="10" stroke-width="3"/><path d="M626.067,132.1c4.448,9.828-.31,21.621-10.656,26.484-10.449,4.862-22.656.931-27.311-8.9" transform="translate(20.816 -22.131)" fill="none" stroke="#fc7500" stroke-miterlimit="10" stroke-width="3"/><path d="M528.664,95.106a21.3,21.3,0,1,1,8.793-41.691" transform="translate(18.181 -24.862)" fill="none" stroke="#fc7500" stroke-miterlimit="10" stroke-width="3"/><path d="M578.2,106.3l24,12.207" transform="translate(20.474 -23.021)" fill="none" stroke="#fc7500" stroke-miterlimit="10" stroke-width="3"/><path d="M592.267,125.652,557.3,106.1" transform="translate(19.753 -23.028)" fill="none" stroke="#fc7500" stroke-miterlimit="10" stroke-width="3"/><path d="M415.6,196.8a21.928,21.928,0,0,1,15.207,14.69c3.724,11.38-1.966,23.38-12.621,26.9a19.564,19.564,0,0,1-14.69-1.138" transform="translate(14.444 -19.898)" fill="none" stroke="#fc7500" stroke-miterlimit="10" stroke-width="3"/><path d="M546.1,300.391c-1.345-11.793,6.517-22.346,17.483-23.587s21.1,7.242,22.449,19.035" transform="translate(19.361 -17.14)" fill="none" stroke="#fc7500" stroke-miterlimit="10" stroke-width="3"/><path d="M403.956,237.064a19.951,19.951,0,0,1-12.621-25.242l.621-1.966A19.951,19.951,0,0,1,417.2,197.235" transform="translate(13.989 -19.919)" fill="none" stroke="#fc7500" stroke-miterlimit="10" stroke-width="3"/><path d="M474.571,254.128c-.31,0-53.071-15.828-53.071-15.828" transform="translate(15.066 -18.465)" fill="none" stroke="#fc7500" stroke-miterlimit="10" stroke-width="3"/><path d="M503.632,226.2a19.957,19.957,0,0,1,12.207,25.139l-.621,1.966A20.014,20.014,0,0,1,490.7,266.132" transform="translate(17.454 -18.883)" fill="none" stroke="#fc7500" stroke-miterlimit="10" stroke-width="3"/><path d="M429.2,202.4s52.967,23.794,53.071,23.794" transform="translate(15.332 -19.704)" fill="none" stroke="#fc7500" stroke-miterlimit="10" stroke-width="3"/><path d="M434.3,215.2s42.312,15.725,42.415,15.828" transform="translate(15.508 -19.263)" fill="none" stroke="#fc7500" stroke-miterlimit="10" stroke-width="3"/><path d="M431.8,228.1s42.312,13.138,42.415,13.138" transform="translate(15.421 -18.817)" fill="none" stroke="#fc7500" stroke-miterlimit="10" stroke-width="3"/><path d="M497.631,266.7a20.03,20.03,0,0,1-21.621-18.208l-.207-2.069A20.03,20.03,0,0,1,494.01,224.8" transform="translate(16.938 -18.931)" fill="none" stroke="#fc7500" stroke-miterlimit="10" stroke-width="3"/><path d="M548.646,253.6,511.3,261.669" transform="translate(18.165 -17.937)" fill="none" stroke="#fc7500" stroke-miterlimit="10" stroke-width="3"/><path d="M556.6,219.506l1.138-.1a20.03,20.03,0,0,1,21.621,18.207l.207,2.069A20.03,20.03,0,0,1,561.359,261.3" transform="translate(19.729 -19.12)" fill="none" stroke="#fc7500" stroke-miterlimit="10" stroke-width="3"/><path d="M513.9,230.59l29.277-2.69" transform="translate(18.255 -18.824)" fill="none" stroke="#fc7500" stroke-miterlimit="10" stroke-width="3"/><path d="M588.559,150.46a19.962,19.962,0,0,1,10.035-26.38l1.345-.621a19.962,19.962,0,0,1,26.38,10.035" transform="translate(20.771 -22.49)" fill="none" stroke="#fc7500" stroke-miterlimit="10" stroke-width="3"/><path d="M678.394,249.6a19.838,19.838,0,0,1-11.069,23.587l-1.345.621a19.962,19.962,0,0,1-26.38-10.035" transform="translate(22.594 -18.075)" fill="none" stroke="#fc7500" stroke-miterlimit="10" stroke-width="3"/><path d="M871.294,149.3a19.838,19.838,0,0,1-11.069,23.587l-1.345.621a19.962,19.962,0,0,1-26.38-10.035" transform="translate(29.252 -21.537)" fill="none" stroke="#fc7500" stroke-miterlimit="10" stroke-width="3"/><path d="M625,133.2l39.415,103.348" transform="translate(22.09 -22.093)" fill="none" stroke="#fc7500" stroke-miterlimit="10" stroke-width="3"/><path d="M548.646,167.888,511.3,117.3" transform="translate(18.165 -22.642)" fill="none" stroke="#fc7500" stroke-miterlimit="10" stroke-width="3"/><path d="M586.246,168.8a19.958,19.958,0,0,1-9.207,24.311l-1.034.517a19.963,19.963,0,0,1-27.1-7.966" transform="translate(19.463 -20.864)" fill="none" stroke="#fc7500" stroke-miterlimit="10" stroke-width="3"/><path d="M583.7,166.2a13.52,13.52,0,0,1,1.241,2.793" transform="translate(20.664 -20.954)" fill="none" stroke="#fc7500" stroke-miterlimit="10" stroke-width="3"/><path d="M552.5,107l21.311,45.312" transform="translate(19.587 -22.997)" fill="none" stroke="#fc7500" stroke-miterlimit="10" stroke-width="3"/><path d="M585.829,298.717A19.916,19.916,0,0,1,546,298.2" transform="translate(19.363 -16.398)" fill="none" stroke="#fc7500" stroke-miterlimit="10" stroke-width="3"/><path d="M577.355,250,575.7,275.035" transform="translate(20.388 -18.062)" fill="none" stroke="#fc7500" stroke-miterlimit="10" stroke-width="3"/><path d="M580.879,197.1,578.5,232.687" transform="translate(20.485 -19.887)" fill="none" stroke="#fc7500" stroke-miterlimit="10" stroke-width="3"/><path d="M565.917,258l-.517,14.173" transform="translate(20.033 -17.785)" fill="none" stroke="#fc7500" stroke-miterlimit="10" stroke-width="3"/><path d="M567.924,199.6l-.724,22.242" transform="translate(20.095 -19.801)" fill="none" stroke="#fc7500" stroke-miterlimit="10" stroke-width="3"/><path d="M547.5,174.156a19.916,19.916,0,1,1,39.829.517" transform="translate(19.415 -21.358)" fill="none" stroke="#fc7500" stroke-miterlimit="10" stroke-width="3"/><path d="M551.659,220.88,549.9,194.5" transform="translate(19.498 -19.977)" fill="none" stroke="#fc7500" stroke-miterlimit="10" stroke-width="3"/><path d="M555.128,272.1l-.828-12" transform="translate(19.649 -17.713)" fill="none" stroke="#fc7500" stroke-miterlimit="10" stroke-width="3"/><path d="M354.4,189.3l45.312,45.312" transform="translate(12.75 -20.157)" fill="none" stroke="#fc7500" stroke-miterlimit="10" stroke-width="3"/><path d="M541.416,169.4a22.914,22.914,0,0,1-4.138,4.242l-1.655,1.241a19.974,19.974,0,0,1-27.932-4.035L484,139.3" transform="translate(17.223 -21.882)" fill="none" stroke="#fc7500" stroke-miterlimit="10" stroke-width="3"/><path d="M485.3,223.372l18.828-71.278A20.053,20.053,0,0,1,523.474,137.3" transform="translate(17.268 -21.951)" fill="none" stroke="#fc7500" stroke-miterlimit="10" stroke-width="3"/><path d="M540.98,170.9l-14.38,54" transform="translate(18.693 -20.792)" fill="none" stroke="#fc7500" stroke-miterlimit="10" stroke-width="3"/><path d="M233.6,47.9V196.87" transform="translate(8.58 -25.037)" fill="none" stroke="#fc7500" stroke-miterlimit="10" stroke-width="3"/><path d="M259.3,132.7v47.9" transform="translate(9.467 -22.11)" fill="none" stroke="#fc7500" stroke-miterlimit="10" stroke-width="3"/><path d="M259.3,94v28.242" transform="translate(9.467 -23.446)" fill="none" stroke="#fc7500" stroke-miterlimit="10" stroke-width="3"/><path d="M259.3,60.1V89.894" transform="translate(9.467 -24.616)" fill="none" stroke="#fc7500" stroke-miterlimit="10" stroke-width="3"/><path d="M246.4,87.7V188.876" transform="translate(9.022 -23.663)" fill="none" stroke="#fc7500" stroke-miterlimit="10" stroke-width="3"/><path d="M272.1,143.164V72.3" transform="translate(9.909 -24.195)" fill="none" stroke="#fc7500" stroke-miterlimit="10" stroke-width="3"/><path d="M272.1,170.756V151.1" transform="translate(9.909 -21.475)" fill="none" stroke="#fc7500" stroke-miterlimit="10" stroke-width="3"/><path d="M285,95.428V82.6" transform="translate(10.354 -23.839)" fill="none" stroke="#fc7500" stroke-miterlimit="10" stroke-width="3"/><path d="M285,131.556V99.9" transform="translate(10.354 -23.242)" fill="none" stroke="#fc7500" stroke-miterlimit="10" stroke-width="3"/><path d="M285,160.456V140.8" transform="translate(10.354 -21.831)" fill="none" stroke="#fc7500" stroke-miterlimit="10" stroke-width="3"/><path d="M246.4,56.7V75.425" transform="translate(9.022 -24.733)" fill="none" stroke="#fc7500" stroke-miterlimit="10" stroke-width="3"/><path d="M528.411,84.521a9.311,9.311,0,1,0-9.311-9.311A9.272,9.272,0,0,0,528.411,84.521Z" transform="translate(18.435 -24.416)" fill="none" stroke="#fc7500" stroke-miterlimit="10" stroke-width="3"/><path d="M379.211,92.221a9.311,9.311,0,1,0-9.311-9.311A9.272,9.272,0,0,0,379.211,92.221Z" transform="translate(13.285 -24.15)" fill="none" stroke="#fc7500" stroke-miterlimit="10" stroke-width="3"/><path d="M379.035,86.769A4.035,4.035,0,1,0,375,82.735,3.975,3.975,0,0,0,379.035,86.769Z" transform="translate(13.461 -23.974)" fill="none" stroke="#fc7500" stroke-miterlimit="10" stroke-width="3"/><path d="M325.035,63.669A4.035,4.035,0,1,0,321,59.635,3.975,3.975,0,0,0,325.035,63.669Z" transform="translate(11.597 -24.771)" fill="none" stroke="#fc7500" stroke-miterlimit="10" stroke-width="3"/><path d="M52.335,82.869A4.035,4.035,0,1,0,48.3,78.835,4.04,4.04,0,0,0,52.335,82.869Z" transform="translate(2.184 -24.109)" fill="none" stroke="#fc7500" stroke-miterlimit="10" stroke-width="3"/><path d="M52.335,64.869A4.035,4.035,0,1,0,48.3,60.835,4.04,4.04,0,0,0,52.335,64.869Z" transform="translate(2.184 -24.73)" fill="none" stroke="#fc7500" stroke-miterlimit="10" stroke-width="3"/><path d="M325.035,189.669A4.035,4.035,0,1,0,321,185.635,3.975,3.975,0,0,0,325.035,189.669Z" transform="translate(11.597 -20.422)" fill="none" stroke="#fc7500" stroke-miterlimit="10" stroke-width="3"/><path d="M379.035,138.169A4.035,4.035,0,1,0,375,134.135,3.975,3.975,0,0,0,379.035,138.169Z" transform="translate(13.461 -22.2)" fill="none" stroke="#fc7500" stroke-miterlimit="10" stroke-width="3"/><path d="M379.035,112.469A4.035,4.035,0,1,0,375,108.435,3.975,3.975,0,0,0,379.035,112.469Z" transform="translate(13.461 -23.087)" fill="none" stroke="#fc7500" stroke-miterlimit="10" stroke-width="3"/><path d="M379.035,163.969A4.035,4.035,0,1,0,375,159.935,3.975,3.975,0,0,0,379.035,163.969Z" transform="translate(13.461 -21.309)" fill="none" stroke="#fc7500" stroke-miterlimit="10" stroke-width="3"/><path d="M379.211,117.921a9.311,9.311,0,1,0-9.311-9.311A9.272,9.272,0,0,0,379.211,117.921Z" transform="translate(13.285 -23.263)" fill="none" stroke="#fc7500" stroke-miterlimit="10" stroke-width="3"/><path d="M379.211,143.621a9.311,9.311,0,1,0-9.311-9.311A9.272,9.272,0,0,0,379.211,143.621Z" transform="translate(13.285 -22.376)" fill="none" stroke="#fc7500" stroke-miterlimit="10" stroke-width="3"/><path d="M379.211,169.421a9.311,9.311,0,1,0-9.311-9.311A9.272,9.272,0,0,0,379.211,169.421Z" transform="translate(13.285 -21.486)" fill="none" stroke="#fc7500" stroke-miterlimit="10" stroke-width="3"/><path d="M412.611,228.521a9.311,9.311,0,1,0-9.311-9.311A9.272,9.272,0,0,0,412.611,228.521Z" transform="translate(14.438 -19.446)" fill="none" stroke="#fc7500" stroke-miterlimit="10" stroke-width="3"/><path d="M494.911,254.221a9.311,9.311,0,1,0-9.311-9.311A9.272,9.272,0,0,0,494.911,254.221Z" transform="translate(17.278 -18.559)" fill="none" stroke="#fc7500" stroke-miterlimit="10" stroke-width="3"/><path d="M559.211,246.521a9.311,9.311,0,1,0-9.311-9.311A9.272,9.272,0,0,0,559.211,246.521Z" transform="translate(19.498 -18.824)" fill="none" stroke="#fc7500" stroke-miterlimit="10" stroke-width="3"/><path d="M564.411,184.821a9.311,9.311,0,1,0-9.311-9.311A9.272,9.272,0,0,0,564.411,184.821Z" transform="translate(19.677 -20.954)" fill="none" stroke="#fc7500" stroke-miterlimit="10" stroke-width="3"/><path d="M605.511,148.821a9.311,9.311,0,1,0-9.311-9.311A9.272,9.272,0,0,0,605.511,148.821Z" transform="translate(21.096 -22.197)" fill="none" stroke="#fc7500" stroke-miterlimit="10" stroke-width="3"/><path d="M564.411,308.321a9.311,9.311,0,1,0-9.311-9.311A9.272,9.272,0,0,0,564.411,308.321Z" transform="translate(19.677 -16.691)" fill="none" stroke="#fc7500" stroke-miterlimit="10" stroke-width="3"/><path d="M698.111,110.221a9.311,9.311,0,1,0-9.311-9.311A9.272,9.272,0,0,0,698.111,110.221Z" transform="translate(24.292 -23.529)" fill="none" stroke="#fc7500" stroke-miterlimit="10" stroke-width="3"/><path d="M657.011,264.521a9.311,9.311,0,1,0-9.311-9.311A9.272,9.272,0,0,0,657.011,264.521Z" transform="translate(22.873 -18.203)" fill="none" stroke="#fc7500" stroke-miterlimit="10" stroke-width="3"/><path d="M523.211,166.821a9.311,9.311,0,1,0-9.311-9.311A9.272,9.272,0,0,0,523.211,166.821Z" transform="translate(18.255 -21.575)" fill="none" stroke="#fc7500" stroke-miterlimit="10" stroke-width="3"/><path d="M847.311,161.621A9.311,9.311,0,1,0,838,152.311,9.272,9.272,0,0,0,847.311,161.621Z" transform="translate(29.442 -21.755)" fill="none" stroke="#fc7500" stroke-miterlimit="10" stroke-width="3"/><path d="M549.9,63.3,685.629,84.611" transform="translate(19.498 -24.506)" fill="none" stroke="#fc7500" stroke-miterlimit="10" stroke-width="3"/><path d="M544.8,89l135.729,16.035" transform="translate(19.322 -23.619)" fill="none" stroke="#fc7500" stroke-miterlimit="10" stroke-width="3"/><path d="M552.5,76.2,680.263,94.821" transform="translate(19.587 -24.06)" fill="none" stroke="#fc7500" stroke-miterlimit="10" stroke-width="3"/><path d="M685.956,112.645,534.3,99.3l-71.8,61.243" transform="translate(16.481 -23.263)" fill="none" stroke="#fc7500" stroke-miterlimit="10" stroke-width="3"/><path d="M704.3,119.9l133.039,45.208" transform="translate(24.827 -22.552)" fill="none" stroke="#fc7500" stroke-miterlimit="10" stroke-width="3"/><path d="M717.1,89l122.383,50.588" transform="translate(25.269 -23.619)" fill="none" stroke="#fc7500" stroke-miterlimit="10" stroke-width="3"/><path d="M719.7,101.9l117.107,45.208" transform="translate(25.358 -23.173)" fill="none" stroke="#fc7500" stroke-miterlimit="10" stroke-width="3"/><path d="M714.5,112.2l119.8,42.519" transform="translate(25.179 -22.818)" fill="none" stroke="#fc7500" stroke-miterlimit="10" stroke-width="3"/><path d="M621.9,158.5l31.967,77.175" transform="translate(21.983 -21.22)" fill="none" stroke="#fc7500" stroke-miterlimit="10" stroke-width="3"/><path d="M598.8,161.1l42.622,85.141" transform="translate(21.185 -21.13)" fill="none" stroke="#fc7500" stroke-miterlimit="10" stroke-width="3"/><path d="M611.7,163.6l34.553,74.485" transform="translate(21.631 -21.044)" fill="none" stroke="#fc7500" stroke-miterlimit="10" stroke-width="3"/><path d="M537.1,107l21.208,42.622" transform="translate(19.056 -22.997)" fill="none" stroke="#fc7500" stroke-miterlimit="10" stroke-width="3"/><path d="M526.8,114.8l23.9,39.829" transform="translate(18.7 -22.728)" fill="none" stroke="#fc7500" stroke-miterlimit="10" stroke-width="3"/><path d="M519.1,238.29l26.587-2.69" transform="translate(18.435 -18.559)" fill="none" stroke="#fc7500" stroke-miterlimit="10" stroke-width="3"/><path d="M513.9,251.28l31.967-5.379" transform="translate(18.255 -18.203)" fill="none" stroke="#fc7500" stroke-miterlimit="10" stroke-width="3"/><path d="M387.9,81.3h66.519" transform="translate(13.906 -23.884)" fill="none" stroke="#fc7500" stroke-miterlimit="10" stroke-width="3"/><path d="M389.2,107h53.174" transform="translate(13.951 -22.997)" fill="none" stroke="#fc7500" stroke-miterlimit="10" stroke-width="3"/><path d="M65.1,76.2H176.828" transform="translate(2.764 -24.06)" fill="none" stroke="#fc7500" stroke-miterlimit="10" stroke-width="3"/><path d="M70.2,63.3H182.031" transform="translate(2.94 -24.506)" fill="none" stroke="#fc7500" stroke-miterlimit="10" stroke-width="3"/><path d="M387.9,135.3h85.141" transform="translate(13.906 -22.02)" fill="none" stroke="#fc7500" stroke-miterlimit="10" stroke-width="3"/><path d="M389.2,161.1h26.587" transform="translate(13.951 -21.13)" fill="none" stroke="#fc7500" stroke-miterlimit="10" stroke-width="3"/><path d="M224.873,194.5H99.8v18.621" transform="translate(3.962 -19.977)" fill="none" stroke="#fc7500" stroke-miterlimit="10" stroke-width="3"/><path d="M107.5,199.6l7.966,7.966,10.656-7.966,10.656,7.966,7.966-7.966,10.656,7.966,7.966-7.966,10.656,7.966,7.966-7.966,7.966,7.966,7.966-7.966,10.656,7.966,7.966-7.966" transform="translate(4.228 -19.801)" fill="none" stroke="#fc7500" stroke-miterlimit="10" stroke-width="3"/><path d="M326.406,68.5l-4.552,4.552a5.663,5.663,0,0,0-.517,7.345l2.483,3.31a5.438,5.438,0,0,1,0,6.724l-2.483,3.31a5.655,5.655,0,0,0,.517,7.345l1.035,1.035a5.663,5.663,0,0,1,.517,7.345l-2.069,2.793a5.655,5.655,0,0,0,.517,7.345l1.035,1.035a5.663,5.663,0,0,1,.517,7.345l-2.069,2.793a5.655,5.655,0,0,0,.517,7.345l.517.517a5.683,5.683,0,0,1,0,7.966,5.683,5.683,0,0,0,0,7.966l.517.517a5.663,5.663,0,0,1,.517,7.345l-2.069,2.793a5.655,5.655,0,0,0,.517,7.345l4.552,4.552" transform="translate(11.57 -24.326)" fill="none" stroke="#fc7500" stroke-miterlimit="10" stroke-width="3"/><path d="M306.221,47.9,287.6,55.866" transform="translate(10.444 -25.037)" fill="none" stroke="#fc7500" stroke-miterlimit="10" stroke-width="3"/><path d="M303.532,197.545,287.6,184.2" transform="translate(10.444 -20.333)" fill="none" stroke="#fc7500" stroke-miterlimit="10" stroke-width="3"/><path d="M220.7,213.3l74.485-24" transform="translate(8.135 -20.157)" fill="none" stroke="#fc7500" stroke-miterlimit="10" stroke-width="3"/><path d="M295.185,53.887,220.7,27.3" transform="translate(8.135 -25.748)" fill="none" stroke="#fc7500" stroke-miterlimit="10" stroke-width="3"/><path d="M1012.679,205.942c.517,0,1.035-.1,1.448-.1a13.925,13.925,0,0,1,5.069.1c2.9.724,4.966,3.207,7.035,5.483,15.828,17.38,38.174,21.932,60.829,19.966,5.483-.517,10.966-1.345,16.345-2.276,8.9-1.655,8.69-2.172,14.38,4.242,7.448,8.38,13.552,17.587,20.69,26.277a87.343,87.343,0,0,0,63.83,31.346c3.621.1,7.552.1,10.242,2.379,5.172,4.345,2.379,12.311,1.345,17.794-.517,2.69-1.655,16.242,3.828,16.035a47.749,47.749,0,0,0-13.656,2.69,88.738,88.738,0,0,1-17.069,3.931c-4.552.621-9.414-.207-13.759,1.138,4.966-1.552,13.449-4.759,16.863-8.9,3.621-4.242-.31-10.035-1.241-14.69-.31-1.655-1.241-19.242,1.034-19.035-8.483-.621-16.449-3.414-24.208-6.724-3-1.241-6.518-2.069-9.311-3.621-3.31-1.862-5.9-5.173-9.1-7.242-2.172-1.448-4.552-2.793-6.724-4.138-8.69-5.483-15.207-12.725-22.449-19.863-1.035-1.035-11.069-11.069-9.724-11.69-7.966,3.828-18.621,1.345-27.208,1.966-12.725.828-24,.828-36.1-4.035-10.966-4.448-20.9-11.276-29.794-19.035a10.754,10.754,0,0,0-2.483-1.759c-4.759-1.966-9.621-.724-14.483-.31a109.613,109.613,0,0,1-17.483-.1,145.014,145.014,0,0,1-35.07-6.724c-4.138-1.345-9.518-3.414-12.828-6.311a11.6,11.6,0,0,1-3.517-6.517,58.513,58.513,0,0,1,1.966-6.517c2.9,5.69,11.794,10.345,17.794,12.518,6.621,2.483,13.966,2.793,21,3C984.54,205.528,998.506,207.287,1012.679,205.942Z" transform="translate(32.596 -20.143)" fill="#4fc4f7"/><path d="M1241.938,309.224c3.1-1.035,6.518-.207,9.724-.517,15.518-1.759,23.484-19.449,40.346-18.1-6.414,4.759-10.242,12-14.483,18.621s-9.414,13.449-16.966,16.035a26.385,26.385,0,0,1-6.931,1.241,43.091,43.091,0,0,1-12.621-.931C1236.145,324.638,1237.076,310.982,1241.938,309.224Z" transform="translate(43.241 -16.663)" fill="#4fc4f7"/><path d="M1093.834,426.488c-5.069,24.208,10.966,48.1,4.862,71.8.414-1.759,2.69-3.828,3.517-5.586a55.774,55.774,0,0,0,2.276-7.035c1.552-4.552,3.1-8.9,3.621-13.863.724-6.517-.414-13.035-1.345-19.449-.931-6.1-3-11.173.724-16.656,3.828-5.586,9.931-9.1,14.069-14.38,5.793-7.345,10.345-17.173,13.035-26.07,1.552-4.966,3.31-9.931,4.138-15.1.517-2.9,2.069-6.311,1.759-9.311-.1-.724-10.242-.931-11.173-.931-4.138,0-6.724,1.035-10.345,2.379.517,6.621-2.069,13.138-5.483,18.725-3.724,6.207-8.173,12.311-12.311,18.311A50.8,50.8,0,0,0,1093.834,426.488Z" transform="translate(38.237 -13.923)" fill="#4fc4f7"/><path d="M1154.287,410.111a25.041,25.041,0,0,0-5.379,2.379,24.183,24.183,0,0,0-5.38,4.345c-6.517,6.931-6.724,15.932-8.069,25.035-2.069,14.483-1.345,28.966-4.759,43.346,6.311-4.552,10.035-12.207,11.069-19.759.621-5.069.207-10.345,1.034-15.414,1.345-8.276,6.311-16.863,14.38-19.656,9.931-3.414,20.587-3.31,30.725-6.311a48.719,48.719,0,0,0,18.725-10.862c2.586-2.379,5.069-3.621,8.069-5.483,1.448-.931,6.207-6.311,7.345-6.311-6.517.207-11.483-7.655-17.794-6.517a14.471,14.471,0,0,0-4.966,2.276,133.053,133.053,0,0,1-11.794,6.724C1177.046,408.766,1164.839,406.8,1154.287,410.111Z" transform="translate(39.545 -13.064)" fill="#4fc4f7"/><path d="M1972.969,444.1c-.931-5.9-512.5-139.453-504.533-152.9a208.712,208.712,0,0,1-67.14,69.933c-9,5.793-18.932,11.069-29.691,11.38-19.552.621-37.346-18.311-35.587-37.76-8.38,13.552-26.9,15.1-41.381,21.518-9.518,4.242-17.794,10.966-27.415,15-14.9,6.311-31.76,5.586-48,4.862-11.173-.517-22.552-1.034-33.622-3.31-10.552-2.276-19.759-8.69-30-10.966-10.448-2.276-30.518-.828-35.9,10.242,15.207.828,28.035-.931,42.312,6.828,3.931,2.069,7.656,4.655,11.587,6.828,5.586,3,11.9,4.138,17.38,7.035a118.255,118.255,0,0,0,16.449,7.552,148.564,148.564,0,0,0,41.381,7.759,95.972,95.972,0,0,0,16.345-.517c7.656-.931,15.311-3.207,23.07-2.483,7.655.724,8.38,8.276,13.759,13.242,11.276,10.345,26.07,14.38,41.381,14.173-36.415,10.138-75.106-6.517-113.073-5.276-19.656.621-51.415,5.793-61.14,25.966,19.035-10.035,42-12.207,59.8-9,23.587,4.138,58.554,9.311,82.451,9.414a116.213,116.213,0,0,0,61.554-16.966c17.483-10.656,34.76-22.139,49.553-36.312,13.449-12.828,26.691-21.932,45.312-25.863a351.469,351.469,0,0,1,79.968-7.242c12.1.31,54.312,12.725,64.45,13.759,12.931,1.241,97.245,19.242,127.349,24,2.69.414,5.9.724,7.862-1.241C1749.41,401.583,1973.383,446.688,1972.969,444.1Z" transform="translate(39.165 -16.639)" fill="#4fc4f7"/><path d="M1973.136,231.139s-549.432,29.277-582.95,29.277-108.728-29.277-125.383-29.277-171.419-39.725-192.317-43.863-140.073-2.069-142.142,2.069c-4.138,8.38,2.069,12.518,10.449,18.828s24.932,8.38,37.656,8.38h35.484s22.966,19.035,37.656,22.966c22.966,6.311,56.484,0,56.484,0s39.725,50.174,81.52,54.312" transform="translate(32.583 -20.304)" fill="none" stroke="#086687" stroke-miterlimit="10" stroke-width="3"/><path d="M1302.265,287.4s-8.38,6.311-16.759,18.828-16.759,20.9-22.966,20.9-37.656-4.138-50.174-2.069-46.036,8.38-56.485,8.38-50.174-12.518-50.174-12.518-46.036-8.38-50.174,8.38,5.173,30.829,18.828,37.656c25.035,12.518,48.1,4.138,69,6.311,17.173,1.759,73.14,35.587,106.659,35.587,33.415,0,73.14-8.38,73.14-8.38" transform="translate(36.916 -16.771)" fill="none" stroke="#086687" stroke-miterlimit="10" stroke-width="3"/><path d="M1080.114,374.438s-6.1,44.691-6.828,59.588-5.69,74.175.517,76.244,27.208-6.311,31.346-20.9,2.069-35.587,0-43.863,11.069-15.518,16.759-22.966c6.311-8.38,20.9-35.587,18.828-52.243" transform="translate(37.474 -13.909)" fill="none" stroke="#086687" stroke-miterlimit="10" stroke-width="3"/><path d="M1216.828,404.6s-22.966,20.9-37.656,20.9-31.346,10.552-33.415,14.69-3.31,27.828-10.449,41.794-14.587,29.277-27.208,27.208" transform="translate(38.764 -12.725)" fill="none" stroke="#086687" stroke-miterlimit="10" stroke-width="3"/><path d="M1156.6,456.14s27.208-18.828,60.623-16.759,69.623,12,83.589,12.518c50.174,2.069,112.866-42.1,125.383-58.554,27.208-35.587,140.073-31.346,167.178-20.9s369.736,66.933,369.736,66.933" transform="translate(40.439 -14.091)" fill="none" stroke="#086687" stroke-miterlimit="10" stroke-width="3"/><path d="M1179.441,299.729s-25.449-4.862-41.588-6.414C1100.3,289.59,1100.3,310.8,1100.3,310.8" transform="translate(38.495 -16.582)" fill="none" stroke="#086687" stroke-miterlimit="10" stroke-width="3"/></g></g></g></g></svg>